<svg width="19" height="20" viewBox="0 0 19 20" fill="none" xmlns="http://www.w3.org/2000/svg">
<path fill-rule="evenodd" clip-rule="evenodd" d="M12.605 0.87868C13.7766 -0.292892 15.6761 -0.292894 16.8477 0.878679L18.0193 2.05025C19.1908 3.22183 19.1908 5.12132 18.0192 6.29289L6.86165 17.4505C6.44285 17.8693 5.90945 18.1548 5.32868 18.2709L2.39334 18.858C0.993902 19.1379 -0.239937 17.904 0.0399504 16.5046L0.627017 13.5692C0.743171 12.9885 1.02864 12.4551 1.44744 12.0363L12.605 0.87868ZM15.4335 2.29289C15.0429 1.90237 14.4098 1.90237 14.0192 2.29289L2.86165 13.4505C2.72205 13.5901 2.6269 13.7679 2.58818 13.9615L2.00111 16.8968L4.93645 16.3097C5.13004 16.271 5.30784 16.1759 5.44744 16.0363L16.605 4.87868C16.9956 4.48815 16.9956 3.85499 16.605 3.46447L15.4335 2.29289Z" fill="#464A54"/>
<path fill-rule="evenodd" clip-rule="evenodd" d="M11.7264 18.1716C11.7264 17.6193 12.1741 17.1716 12.7264 17.1716H17.7264C18.2786 17.1716 18.7264 17.6193 18.7264 18.1716C18.7264 18.7239 18.2786 19.1716 17.7264 19.1716H12.7264C12.1741 19.1716 11.7264 18.7239 11.7264 18.1716Z" fill="#464A54"/>
</svg>
